<?xml version="1.0" encoding="iso-8859-1"?>
<!-- Generator: Adobe Illustrator 19.0.0, SVG Export Plug-In . SVG Version: 6.00 Build 0)  -->
<svg version="1.1" id="Capa_1" xmlns="http://www.w3.org/2000/svg" xmlns:xlink="http://www.w3.org/1999/xlink" x="0px" y="0px"
	 viewBox="0 0 512 512" style="enable-background:new 0 0 512 512;" xml:space="preserve" fill="#ffffff">
<g>
	<g>
		<g>
			<path d="M469.333,85.333H260.807L234.083,7.219C232.625,2.896,228.563,0,224,0H42.667C19.146,0,0,19.135,0,42.667V384
				c0,23.531,19.146,42.667,42.667,42.667h205.948l29.406,78.417C279.583,509.24,283.563,512,288,512h181.333
				C492.854,512,512,492.865,512,469.333V128C512,104.469,492.854,85.333,469.333,85.333z M42.667,405.333
				c-11.771,0-21.333-9.573-21.333-21.333V42.667c0-11.76,9.563-21.333,21.333-21.333h173.708l131.375,384H42.667z M271.387,426.667
				h67.783l-47.443,54.22L271.387,426.667z M490.667,469.333c0,11.76-9.563,21.333-21.333,21.333H311.497l59.19-67.646l-0.143-0.125
				c0.241-0.271,0.595-0.4,0.81-0.698c2-2.792,2.521-6.396,1.396-9.646l-2.47-7.219h67.053c5.896,0,10.667-4.771,10.667-10.667
				S443.229,384,437.333,384h-74.352l-14.596-42.667h88.948c5.896,0,10.667-4.771,10.667-10.667c0-5.896-4.771-10.667-10.667-10.667
				h-96.246l-14.596-42.667h110.842c5.896,0,10.667-4.771,10.667-10.667c0-5.896-4.771-10.667-10.667-10.667H319.193l-14.596-42.667
				h132.737c5.896,0,10.667-4.771,10.667-10.667c0-5.896-4.771-10.667-10.667-10.667H297.298l-29.193-85.333h201.228
				c11.771,0,21.333,9.573,21.333,21.333V469.333z"/>
			<path d="M74.667,192H224c5.896,0,10.667-4.771,10.667-10.667c0-5.896-4.771-10.667-10.667-10.667h-1.078
				c-4.225-29.143-25.186-52.661-52.918-60.724c0.18-1.111,0.663-2.115,0.663-3.276c0-11.76-9.563-21.333-21.333-21.333
				c-11.771,0-21.333,9.573-21.333,21.333c0,1.161,0.483,2.165,0.663,3.276c-27.732,8.063-48.693,31.581-52.918,60.724h-1.078
				c-5.896,0-10.667,4.771-10.667,10.667C64,187.229,68.771,192,74.667,192z M149.333,128c25.763,0,47.299,18.353,52.255,42.667
				H97.078C102.034,146.353,123.57,128,149.333,128z"/>
			<path d="M224,256H74.667C68.771,256,64,260.771,64,266.667c0,5.896,4.771,10.667,10.667,10.667H224
				c5.896,0,10.667-4.771,10.667-10.667C234.667,260.771,229.896,256,224,256z"/>
			<path d="M224,320H74.667C68.771,320,64,324.771,64,330.667c0,5.896,4.771,10.667,10.667,10.667H224
				c5.896,0,10.667-4.771,10.667-10.667C234.667,324.771,229.896,320,224,320z"/>
		</g>
	</g>
</g>
<g>
</g>
<g>
</g>
<g>
</g>
<g>
</g>
<g>
</g>
<g>
</g>
<g>
</g>
<g>
</g>
<g>
</g>
<g>
</g>
<g>
</g>
<g>
</g>
<g>
</g>
<g>
</g>
<g>
</g>
</svg>
