<?xml version="1.0" standalone="no"?>
<!DOCTYPE svg PUBLIC "-//W3C//DTD SVG 20010904//EN"
 "http://www.w3.org/TR/2001/REC-SVG-20010904/DTD/svg10.dtd">
<svg version="1.0" xmlns="http://www.w3.org/2000/svg"
 width="128.000000pt" height="128.000000pt" viewBox="0 0 128.000000 128.000000"
 preserveAspectRatio="xMidYMid meet" fill="#ffffff">

<g transform="translate(0.000000,128.000000) scale(0.100000,-0.100000)" stroke="none">
<path d="M501 1265 c-178 -39 -348 -172 -429 -336 -127 -256 -81 -540 118
-739 251 -252 649 -252 900 0 252 251 252 649 0 900 -155 156 -375 221 -589
175z m273 -105 c100 -25 170 -66 245 -141 75 -75 116 -145 141 -245 25 -98 25
-170 0 -268 -25 -100 -66 -170 -141 -245 -75 -75 -145 -116 -245 -141 -98 -25
-170 -25 -268 0 -100 25 -170 66 -245 141 -75 75 -116 145 -141 245 -25 98
-25 170 0 268 25 100 66 170 141 245 73 74 145 116 241 141 95 25 176 25 272
0z"/>
<path d="M552 934 c-37 -18 -59 -38 -76 -67 -44 -75 -46 -139 -6 -152 37 -12
59 4 71 50 15 58 49 90 99 90 70 0 117 -71 90 -136 -13 -31 -55 -59 -88 -59
-38 0 -52 -31 -52 -118 0 -76 2 -83 25 -98 23 -15 27 -15 50 0 21 14 25 24 25
69 1 51 2 52 43 73 58 28 97 86 103 155 5 46 2 62 -23 109 -23 44 -39 60 -82
82 -67 35 -112 35 -179 2z"/>
<path d="M612 388 c-41 -20 -41 -87 0 -109 46 -25 98 20 85 74 -5 18 -47 51
-60 46 -1 0 -12 -5 -25 -11z"/>
</g>
</svg>
