<svg id="Layer_2" height="512" viewBox="0 0 128 128" width="512" xmlns="http://www.w3.org/2000/svg" fill="#ffffff" data-name="Layer 2"><path d="m107.667 12.917h-11.667v-11.167a1.771 1.771 0 0 0 -2.051-1.724l-73.917 12.916a1.784 1.784 0 0 0 -1.449 1.725v111.583a1.751 1.751 0 0 0 1.75 1.75h87.334a1.75 1.75 0 0 0 1.75-1.75v-111.583a1.749 1.749 0 0 0 -1.75-1.75zm-15.167-9.084v9.084h-51.985zm13.417 120.667h-83.834v-108.083h83.834z"/><path d="m45.118 60.706-1.676 29.114a6.8 6.8 0 1 0 13.558.019l-1.672-29.133c3.267-1.237 5.133-4.666 4.748-9.018l-1.111-12.566a8.893 8.893 0 0 0 -8.429-8.2 8.769 8.769 0 0 0 -9.036 7.978l-1.13 12.788c-.386 4.352 1.481 7.781 4.748 9.018zm-1.262-8.706 1.131-12.79a5.259 5.259 0 0 1 5.238-4.793h.188a5.391 5.391 0 0 1 5.066 5.009l1.111 12.574c.1 1.194.177 5.129-3.348 5.653a1.75 1.75 0 0 0 -1.49 1.832l1.759 30.575a3.262 3.262 0 0 1 -.878 2.476 3.374 3.374 0 0 1 -4.82 0 3.275 3.275 0 0 1 -.877-2.5l1.758-30.56a1.75 1.75 0 0 0 -1.49-1.832c-3.525-.519-3.454-4.454-3.348-5.644z"/><path d="m72.672 60.706-1.672 29.113a6.8 6.8 0 1 0 13.562.02l-1.679-29.133c3.265-1.237 5.133-4.666 4.748-9.018l-.386-4.357v-14.664a1.75 1.75 0 0 0 -3.5 0v12.991h-4.218v-12.991a1.75 1.75 0 0 0 -3.5 0v12.991h-4.217v-12.991a1.75 1.75 0 0 0 -3.5 0v14.664l-.386 4.357c-.385 4.352 1.482 7.781 4.748 9.018zm-1.262-8.706.251-2.838h12.233l.251 2.838c.105 1.194.175 5.129-3.348 5.653a1.75 1.75 0 0 0 -1.49 1.832l1.758 30.58a3.259 3.259 0 0 1 -.878 2.474 3.374 3.374 0 0 1 -4.82 0 3.28 3.28 0 0 1 -.877-2.5l1.758-30.56a1.75 1.75 0 0 0 -1.49-1.832c-3.524-.521-3.453-4.457-3.348-5.647z"/><path d="m28.125 105v12.25a1.751 1.751 0 0 0 1.75 1.75h68.25a1.75 1.75 0 0 0 1.75-1.75v-12.25a1.75 1.75 0 0 0 -1.75-1.75h-68.25a1.751 1.751 0 0 0 -1.75 1.75zm3.5 1.75h64.75v8.75h-64.75z"/></svg>