<svg width="48" height="48" viewBox="0 0 48 48" fill="none" xmlns="http://www.w3.org/2000/svg">
<g filter="url(#filter0_d)">
<path d="M39 20C39 28.2843 32.2843 35 24 35C15.7157 35 9 28.2843 9 20C9 11.7157 15.7157 5 24 5C32.2843 5 39 11.7157 39 20Z" fill="#4285F4" stroke="white" stroke-width="2"/>
<path fill-rule="evenodd" clip-rule="evenodd" d="M18 12C17.4477 12 17 12.4477 17 13V18C17 19.8638 18.2748 21.4299 20 21.874V27C20 27.5523 20.4477 28 21 28C21.5523 28 22 27.5523 22 27V21.874C23.7252 21.4299 25 19.8638 25 18V13C25 12.4477 24.5523 12 24 12C23.4477 12 23 12.4477 23 13V18H22V13C22 12.4477 21.5523 12 21 12C20.4477 12 20 12.4477 20 13V18H19V13C19 12.4477 18.5523 12 18 12ZM28 12H27V22V27C27 27.5523 27.4477 28 28 28C28.5523 28 29 27.5523 29 27V22H30C30 22 31 19 31 16C31 13 28 12 28 12Z" fill="white"/>
</g>
<defs>
<filter id="filter0_d" x="0" y="0" width="48" height="48" filterUnits="userSpaceOnUse" color-interpolation-filters="sRGB">
<feFlood flood-opacity="0" result="BackgroundImageFix"/>
<feColorMatrix in="SourceAlpha" type="matrix" values="0 0 0 0 0 0 0 0 0 0 0 0 0 0 0 0 0 0 127 0"/>
<feOffset dy="4"/>
<feGaussianBlur stdDeviation="4"/>
<feColorMatrix type="matrix" values="0 0 0 0 0 0 0 0 0 0 0 0 0 0 0 0 0 0 0.25 0"/>
<feBlend mode="normal" in2="BackgroundImageFix" result="effect1_dropShadow"/>
<feBlend mode="normal" in="SourceGraphic" in2="effect1_dropShadow" result="shape"/>
</filter>
</defs>
</svg>
